<?xml version="1.0" standalone="no"?>
<!DOCTYPE svg PUBLIC "-//W3C//DTD SVG 20010904//EN"
 "http://www.w3.org/TR/2001/REC-SVG-20010904/DTD/svg10.dtd">
<svg version="1.0" xmlns="http://www.w3.org/2000/svg"
 width="256.000000pt" height="256.000000pt" viewBox="0 0 256.000000 256.000000"
 preserveAspectRatio="xMidYMid meet">

<g transform="translate(0.000000,256.000000) scale(0.100000,-0.100000)"
fill="#000000" stroke="none">
<path d="M705 2099 c-187 -87 -343 -160 -347 -161 -7 -4 54 -1028 62 -1028 3
0 145 300 315 668 169 367 310 670 312 675 5 9 41 25 -342 -154z"/>
<path d="M1524 2227 c38 -90 608 -1313 614 -1319 4 -4 20 198 35 450 16 251
31 484 34 517 l5 60 -258 119 c-143 66 -301 139 -351 162 l-93 43 14 -32z"/>
<path d="M1156 1433 c-65 -159 -121 -294 -123 -300 -4 -10 49 -13 247 -13 225
0 251 2 246 16 -43 113 -242 584 -246 584 -3 0 -59 -129 -124 -287z"/>
<path d="M846 694 c-39 -96 -45 -119 -34 -129 19 -18 456 -265 468 -265 12 0
449 247 468 265 11 10 5 33 -34 129 l-47 116 -387 0 -386 0 -48 -116z"/>
</g>
</svg>
